<svg xmlns="http://www.w3.org/2000/svg" version="1.1" xmlns:xlink="http://www.w3.org/1999/xlink" xmlns:svgjs="http://svgjs.dev/svgjs" width="2000" height="1500" viewBox="0 0 2000 1500"><rect width="2000" height="1500" fill="#161616"></rect><g transform="matrix(0.75,0,0,0.75,249.090909090909,635.6407071868583)"><svg viewBox="0 0 396 60" data-background-color="#161616" preserveAspectRatio="xMidYMid meet" height="303" width="2000" xmlns="http://www.w3.org/2000/svg" xmlns:xlink="http://www.w3.org/1999/xlink"><g id="tight-bounds" transform="matrix(1,0,0,1,0.2400000000000091,0.19387268993838802)"><svg viewBox="0 0 395.52 59.6122546201232" height="59.6122546201232" width="395.52"><g><svg viewBox="0 0 395.52 59.6122546201232" height="59.6122546201232" width="395.52"><g><svg viewBox="0 0 395.52 59.6122546201232" height="59.6122546201232" width="395.52"><g><svg viewBox="0 0 395.52 59.6122546201232" height="59.6122546201232" width="395.52"><g id="textblocktransform"><svg viewBox="0 0 395.52 59.6122546201232" height="59.6122546201232" width="395.52" id="textblock"><g><svg viewBox="0 0 395.52 59.6122546201232" height="59.6122546201232" width="395.52"><g transform="matrix(1,0,0,1,0,0)"><svg width="395.52" viewBox="3.1 -43.25 365.21999999999997 55.050000000000004" height="59.6122546201232" data-palette-color="#ffffff"><path d="M32-18.1Q33-18.1 33.68-17.55 34.35-17 34.35-15.8L34.35-15.8Q34.35-14.65 33.68-14.1 33-13.55 32-13.55L32-13.55 31.35-13.55 31.65-2.35Q31.7-1.25 31.05-0.6 30.4 0.05 29.2 0.05L29.2 0.05Q28.05 0.05 27.38-0.55 26.7-1.15 26.65-2.2L26.65-2.2 26.3-13.65 11.1-13.9 10.1-1.5Q9.9 0.3 7.6 0.3L7.6 0.3Q4.9 0.3 5.1-1.85L5.1-1.85 6.05-14 5.3-14Q4.4-14 3.75-14.6 3.1-15.2 3.1-16.25L3.1-16.25Q3.1-17.35 3.75-17.93 4.4-18.5 5.45-18.5L5.45-18.5 6.4-18.5 7.65-33.95Q7.7-34.95 8.43-35.52 9.15-36.1 10.25-36.1L10.25-36.1Q11.55-36.1 12.15-35.4 12.75-34.7 12.65-33.6L12.65-33.6 11.45-18.4 26.15-18.2 25.7-33.7Q25.7-34.8 26.35-35.45 27-36.1 28.2-36.1L28.2-36.1Q29.35-36.1 30.03-35.48 30.7-34.85 30.75-33.9L30.75-33.9 31.2-18.1 32-18.1ZM45.6-27.55Q44.05-27.55 43.05-28.58 42.05-29.6 42.05-31.15L42.05-31.15Q42.05-32.65 43.07-33.65 44.1-34.65 45.7-34.65L45.7-34.65Q47.3-34.65 48.27-33.7 49.25-32.75 49.25-31.2L49.25-31.2Q49.25-29.65 48.22-28.6 47.2-27.55 45.6-27.55L45.6-27.55ZM44.9-0.3Q43.75-0.3 43.05-0.85 42.35-1.4 42.35-2.4L42.35-2.4 42.85-22.7Q42.85-23.7 43.55-24.28 44.25-24.85 45.35-24.85L45.35-24.85Q46.45-24.85 47.17-24.25 47.9-23.65 47.9-22.65L47.9-22.65 47.4-2.35Q47.35-1.35 46.67-0.83 46-0.3 44.9-0.3L44.9-0.3ZM63.4-27.65Q61.85-27.65 60.77-28.68 59.7-29.7 59.7-31.15L59.7-31.15Q59.7-32.6 60.75-33.6 61.8-34.6 63.4-34.6L63.4-34.6Q64.95-34.6 65.97-33.63 67-32.65 67-31.15L67-31.15Q67-29.6 65.92-28.63 64.85-27.65 63.4-27.65L63.4-27.65ZM56.65 11.8Q53.3 11.8 51.17 9.78 49.05 7.75 49.05 4.6L49.05 4.6Q49.05 3.25 49.57 2.7 50.1 2.15 51.3 2.15L51.3 2.15Q52.4 2.15 53 2.6 53.6 3.05 53.7 4.05L53.7 4.05Q53.9 6.1 54.52 6.98 55.15 7.85 56.4 7.85L56.4 7.85Q58.35 7.85 59.32 5.65 60.3 3.45 60.4-1.25L60.4-1.25Q60.7-12.9 60.7-23.1L60.7-23.1Q60.7-23.9 61.35-24.4 62-24.9 63.2-24.9L63.2-24.9Q64.35-24.9 64.97-24.4 65.6-23.9 65.6-23L65.6-23Q65.6-12.55 65.3-1.2L65.3-1.2Q65.15 5.25 62.97 8.53 60.8 11.8 56.65 11.8L56.65 11.8ZM78.89-27.55Q77.34-27.55 76.34-28.58 75.34-29.6 75.34-31.15L75.34-31.15Q75.34-32.65 76.37-33.65 77.39-34.65 78.99-34.65L78.99-34.65Q80.59-34.65 81.57-33.7 82.54-32.75 82.54-31.2L82.54-31.2Q82.54-29.65 81.52-28.6 80.49-27.55 78.89-27.55L78.89-27.55ZM78.19-0.3Q77.04-0.3 76.34-0.85 75.64-1.4 75.64-2.4L75.64-2.4 76.14-22.7Q76.14-23.7 76.84-24.28 77.54-24.85 78.64-24.85L78.64-24.85Q79.74-24.85 80.47-24.25 81.19-23.65 81.19-22.65L81.19-22.65 80.69-2.35Q80.64-1.35 79.97-0.83 79.29-0.3 78.19-0.3L78.19-0.3ZM102.14-25.8Q105.34-25.8 107.24-23.75 109.14-21.7 109.14-18.65L109.14-18.65Q109.14-15.75 107.34-14.1 105.54-12.45 102.69-12.45L102.69-12.45Q101.44-12.45 100.92-12.83 100.39-13.2 100.39-14.15L100.39-14.15Q100.39-15 100.77-15.38 101.14-15.75 101.89-15.8L101.89-15.8Q105.04-16.05 105.04-18.75L105.04-18.75Q105.04-20.05 104.31-20.95 103.59-21.85 102.09-21.85L102.09-21.85Q100.34-21.85 98.97-20.2 97.59-18.55 96.77-16.2 95.94-13.85 95.79-11.75L95.79-11.75Q95.44-8 95.44-3.35L95.44-3.35Q95.44-1.1 94.94-0.35 94.44 0.4 93.04 0.4L93.04 0.4Q91.69 0.4 91.12-0.18 90.54-0.75 90.54-2.1L90.54-2.1Q90.49-3.05 90.49-11.15L90.49-11.15Q90.49-15.2 89.94-20.5L89.94-20.5 89.64-24.35Q89.59-25.3 90.22-25.85 90.84-26.4 91.99-26.4L91.99-26.4Q93.99-26.4 94.09-24.6L94.09-24.6 94.44-19.5Q95.34-22.35 97.34-24.08 99.34-25.8 102.14-25.8L102.14-25.8ZM120.14-27.55Q118.59-27.55 117.59-28.58 116.59-29.6 116.59-31.15L116.59-31.15Q116.59-32.65 117.61-33.65 118.64-34.65 120.24-34.65L120.24-34.65Q121.84-34.65 122.81-33.7 123.79-32.75 123.79-31.2L123.79-31.2Q123.79-29.65 122.76-28.6 121.74-27.55 120.14-27.55L120.14-27.55ZM119.44-0.3Q118.29-0.3 117.59-0.85 116.89-1.4 116.89-2.4L116.89-2.4 117.39-22.7Q117.39-23.7 118.09-24.28 118.79-24.85 119.89-24.85L119.89-24.85Q120.99-24.85 121.71-24.25 122.44-23.65 122.44-22.65L122.44-22.65 121.94-2.35Q121.89-1.35 121.21-0.83 120.54-0.3 119.44-0.3L119.44-0.3ZM176.13-14.8Q177.43-14.8 178.11-14.18 178.78-13.55 178.78-12.35L178.78-12.35Q178.78-8.9 176.88-6.03 174.98-3.15 171.53-1.5 168.08 0.15 163.63 0.15L163.63 0.15Q158.98 0.15 155.13-1.78 151.28-3.7 149.01-7.5 146.73-11.3 146.73-16.7L146.73-16.7Q146.73-22.1 148.91-26.45 151.08-30.8 154.78-33.23 158.48-35.65 162.88-35.65L162.88-35.65Q165.93-35.65 168.31-34.63 170.68-33.6 172.23-31.85L172.23-31.85 172.23-33.55Q172.23-34.4 172.86-34.93 173.48-35.45 174.58-35.45L174.58-35.45Q175.73-35.45 176.36-34.88 176.98-34.3 176.98-33.15L176.98-33.15 176.98-27.85Q176.98-24.85 174.58-24.85L174.58-24.85Q173.18-24.85 172.38-25.95L172.38-25.95Q170.58-28.35 168.58-29.75 166.58-31.15 163.58-31.15L163.58-31.15Q160.43-31.15 157.71-29.23 154.98-27.3 153.36-23.98 151.73-20.65 151.73-16.6L151.73-16.6Q151.73-12.7 153.43-9.95 155.13-7.2 157.91-5.78 160.68-4.35 163.83-4.35L163.83-4.35Q166.33-4.35 168.61-5.25 170.88-6.15 172.28-7.98 173.68-9.8 173.68-12.4L173.68-12.4Q173.68-13.5 174.33-14.15 174.98-14.8 176.13-14.8L176.13-14.8ZM207.13-4Q207.88-3.9 208.31-3.5 208.73-3.1 208.73-2.15L208.73-2.15Q208.73-1.25 208.28-0.65 207.83-0.05 207.03-0.05L207.03-0.05Q204.98-0.05 203.96-0.65 202.93-1.25 202.08-2.9L202.08-2.9Q199.98 0.5 194.28 0.5L194.28 0.5Q188.48 0.5 185.73-3.03 182.98-6.55 182.98-11.8L182.98-11.8Q182.98-15.3 184.38-18.25 185.78-21.2 188.48-22.95 191.18-24.7 194.78-24.7L194.78-24.7Q197.08-24.7 198.86-23.8 200.63-22.9 201.53-21.35L201.53-21.35 201.68-22.6Q201.88-24.4 203.83-24.4L203.83-24.4Q205.13-24.4 205.68-23.83 206.23-23.25 206.13-22.4L206.13-22.4Q205.63-18.65 205.53-16.75L205.53-16.75Q205.38-14.95 205.38-12.05L205.38-12.05 205.38-8.75Q205.38-6.15 205.66-5.15 205.93-4.15 207.13-4L207.13-4ZM200.48-8.75Q200.53-11 200.53-14.9L200.53-14.9Q200.53-16.95 199.66-18.25 198.78-19.55 197.51-20.15 196.23-20.75 194.93-20.75L194.93-20.75Q192.68-20.75 191.11-19.43 189.53-18.1 188.76-16.05 187.98-14 187.98-11.8L187.98-11.8Q187.98-8.45 189.56-5.98 191.13-3.5 194.48-3.5L194.48-3.5Q197.13-3.5 198.78-4.85 200.43-6.2 200.48-8.75L200.48-8.75ZM217.63-0.45Q216.53-0.45 215.88-1.05 215.23-1.65 215.23-2.6L215.23-2.6 214.93-37.4Q214.93-38.4 215.65-39 216.38-39.6 217.48-39.6L217.48-39.6Q218.58-39.6 219.23-39 219.88-38.4 219.88-37.45L219.88-37.45 220.13-2.65Q220.13-1.65 219.43-1.05 218.73-0.45 217.63-0.45L217.63-0.45ZM240.18 0.3Q235.93 0.3 232.9-1.45 229.88-3.2 228.35-6.15 226.83-9.1 226.83-12.65L226.83-12.65Q226.83-16.3 228.48-19.28 230.13-22.25 233.13-23.98 236.13-25.7 239.98-25.7L239.98-25.7Q243.38-25.7 246.1-24.33 248.83-22.95 250.38-20.45 251.93-17.95 251.93-14.75L251.93-14.75Q251.93-13.05 251.43-12.33 250.93-11.6 249.38-11.55L249.38-11.55 231.33-11.3Q231.33-9.65 232.38-7.9 233.43-6.15 235.4-4.98 237.38-3.8 240.03-3.8L240.03-3.8Q241.93-3.8 243.25-4.33 244.58-4.85 245.38-5.58 246.18-6.3 247.28-7.5L247.28-7.5Q247.83-8.05 248.68-8.05L248.68-8.05Q249.48-8.05 250.2-7.43 250.93-6.8 250.93-6L250.93-6Q250.93-5.35 250.48-4.75L250.48-4.75Q249.08-2.75 246.73-1.23 244.38 0.3 240.18 0.3L240.18 0.3ZM231.33-14.8L247.23-15.1Q247.53-15.1 247.65-15.28 247.78-15.45 247.78-15.8L247.78-15.8Q247.78-18.45 245.55-20.13 243.33-21.8 239.98-21.8L239.98-21.8Q237.43-21.8 235.45-20.6 233.48-19.4 232.4-17.73 231.33-16.05 231.33-14.8L231.33-14.8ZM271.02-25.5Q275.27-25.5 277.5-22.48 279.72-19.45 279.72-13.45L279.72-13.45 279.72-1.9Q279.72-0.95 279.07-0.48 278.42 0 277.32 0L277.32 0Q276.22 0 275.47-0.45 274.72-0.9 274.72-1.8L274.72-1.8 274.77-13.5Q274.77-17.65 273.85-19.53 272.92-21.4 270.57-21.4L270.57-21.4Q266.07-21.4 264.72-14.2L264.72-14.2Q264.27-12 264.27-8.9L264.27-8.9 264.32-1.8Q264.32-0.9 263.67-0.43 263.02 0.05 261.92 0.05L261.92 0.05Q260.72 0.05 260.05-0.48 259.37-1 259.37-1.8L259.37-1.8Q259.37-6.8 259.17-13.4L259.17-13.4Q259.07-17.3 259.07-18.8L259.07-18.8Q259.02-19.9 258.75-20.53 258.47-21.15 257.72-22.4L257.72-22.4Q257.52-22.9 257.52-23.25L257.52-23.25Q257.52-24 258.37-24.65 259.22-25.3 260.02-25.3L260.02-25.3Q260.87-25.3 261.67-24.2L261.67-24.2Q263.02-22.25 263.02-20.65L263.02-20.65 263.02-20.05Q263.92-22.4 265.85-23.95 267.77-25.5 271.02-25.5L271.02-25.5ZM298.42 0.3Q294.77 0.3 291.8-1.18 288.82-2.65 287.1-5.58 285.37-8.5 285.37-12.7L285.37-12.7Q285.37-16.6 286.97-19.5 288.57-22.4 291.52-23.95 294.47-25.5 298.42-25.5L298.42-25.5Q300.97-25.5 302.87-24.8 304.77-24.1 305.97-23L305.97-23Q306.27-35.05 306.72-41.3L306.72-41.3Q306.82-42.15 307.5-42.7 308.17-43.25 309.17-43.25L309.17-43.25Q310.32-43.25 311.05-42.65 311.77-42.05 311.72-41.1L311.72-41.1Q311.37-37.8 311.1-29 310.82-20.2 310.82-13.3L310.82-13.3Q310.82-6.65 311.12-5.45L311.12-5.45Q311.67-3.4 312.62-2.9L312.62-2.9Q312.82-2.8 312.82-2.2L312.82-2.2Q312.82-1.3 312-0.55 311.17 0.2 310.17 0.2L310.17 0.2Q309.32 0.2 308.82-0.2L308.82-0.2Q307.07-1.2 306.47-3.7L306.47-3.7Q305.22-1.85 303.12-0.78 301.02 0.3 298.42 0.3L298.42 0.3ZM298.37-3.85Q300.27-3.85 302-4.75 303.72-5.65 304.77-7.13 305.82-8.6 305.82-10.25L305.82-10.25Q305.82-12.55 305.87-13.85L305.87-13.85 305.92-17.85Q305.17-19.15 303.1-20.28 301.02-21.4 298.57-21.4L298.57-21.4Q294.77-21.4 292.55-19.05 290.32-16.7 290.32-12.55L290.32-12.55Q290.32-9.7 291.5-7.73 292.67-5.75 294.5-4.8 296.32-3.85 298.37-3.85L298.37-3.85ZM341.27-4Q342.02-3.9 342.44-3.5 342.87-3.1 342.87-2.15L342.87-2.15Q342.87-1.25 342.42-0.65 341.97-0.05 341.17-0.05L341.17-0.05Q339.12-0.05 338.09-0.65 337.07-1.25 336.22-2.9L336.22-2.9Q334.12 0.5 328.42 0.5L328.42 0.5Q322.62 0.5 319.87-3.03 317.12-6.55 317.12-11.8L317.12-11.8Q317.12-15.3 318.52-18.25 319.92-21.2 322.62-22.95 325.32-24.7 328.92-24.7L328.92-24.7Q331.22-24.7 332.99-23.8 334.77-22.9 335.67-21.35L335.67-21.35 335.82-22.6Q336.02-24.4 337.97-24.4L337.97-24.4Q339.27-24.4 339.82-23.83 340.37-23.25 340.27-22.4L340.27-22.4Q339.77-18.65 339.67-16.75L339.67-16.75Q339.52-14.95 339.52-12.05L339.52-12.05 339.52-8.75Q339.52-6.15 339.79-5.15 340.07-4.15 341.27-4L341.27-4ZM334.62-8.75Q334.67-11 334.67-14.9L334.67-14.9Q334.67-16.95 333.79-18.25 332.92-19.55 331.64-20.15 330.37-20.75 329.07-20.75L329.07-20.75Q326.82-20.75 325.24-19.43 323.67-18.1 322.89-16.05 322.12-14 322.12-11.8L322.12-11.8Q322.12-8.45 323.69-5.98 325.27-3.5 328.62-3.5L328.62-3.5Q331.27-3.5 332.92-4.85 334.57-6.2 334.62-8.75L334.62-8.75ZM361.32-25.8Q364.52-25.8 366.42-23.75 368.32-21.7 368.32-18.65L368.32-18.65Q368.32-15.75 366.52-14.1 364.72-12.45 361.87-12.45L361.87-12.45Q360.62-12.45 360.09-12.83 359.57-13.2 359.57-14.15L359.57-14.15Q359.57-15 359.94-15.38 360.32-15.75 361.07-15.8L361.07-15.8Q364.22-16.05 364.22-18.75L364.22-18.75Q364.22-20.05 363.49-20.95 362.77-21.85 361.27-21.85L361.27-21.85Q359.52-21.85 358.14-20.2 356.77-18.55 355.94-16.2 355.12-13.85 354.97-11.75L354.97-11.75Q354.62-8 354.62-3.35L354.62-3.35Q354.62-1.1 354.12-0.35 353.62 0.4 352.22 0.4L352.22 0.4Q350.87 0.4 350.29-0.18 349.72-0.75 349.72-2.1L349.72-2.1Q349.67-3.05 349.67-11.15L349.67-11.15Q349.67-15.2 349.12-20.5L349.12-20.5 348.82-24.35Q348.77-25.3 349.39-25.85 350.02-26.4 351.17-26.4L351.17-26.4Q353.17-26.4 353.27-24.6L353.27-24.6 353.62-19.5Q354.52-22.35 356.52-24.08 358.52-25.8 361.32-25.8L361.32-25.8Z" opacity="1" transform="matrix(1,0,0,1,0,0)" fill="#ffffff" class="wordmark-text-0" data-fill-palette-color="primary" id="text-0"></path></svg></g></svg></g></svg></g></svg></g><g></g></svg></g></svg></g><defs></defs></svg><rect width="395.52" height="59.6122546201232" fill="none" stroke="none" visibility="hidden"></rect></g></svg></g></svg>